<mxfile host="app.diagrams.net" agent="Mozilla/5.0 (Windows NT 10.0; Win64; x64) AppleWebKit/537.36 (KHTML, like Gecko) Chrome/135.0.0.0 Safari/537.36 Edg/135.0.0.0" version="26.2.13">
  <diagram name="第 1 页" id="A5NmqIifbwaEh87pl5MD">
    <mxGraphModel dx="2620" dy="1822" grid="1" gridSize="10" guides="1" tooltips="1" connect="1" arrows="1" fold="1" page="1" pageScale="1" pageWidth="827" pageHeight="583" math="0" shadow="0">
      <root>
        <mxCell id="0" />
        <mxCell id="1" parent="0" />
        <mxCell id="EuJhuxFGMD-RU2whj7ZI-2" value="开始" style="rounded=1;whiteSpace=wrap;html=1;fillColor=light-dark(#82b366, #1f2f1e);strokeColor=#82b366;strokeWidth=3;" vertex="1" parent="1">
          <mxGeometry x="-1620" y="-880" width="80" height="30" as="geometry" />
        </mxCell>
        <mxCell id="EuJhuxFGMD-RU2whj7ZI-3" value="站立静止" style="rounded=1;whiteSpace=wrap;html=1;fillColor=#fa6800;strokeColor=light-dark(#fa6800, #ff9164);strokeWidth=3;fontColor=#000000;" vertex="1" parent="1">
          <mxGeometry x="-1520" y="-820" width="80" height="30" as="geometry" />
        </mxCell>
        <mxCell id="EuJhuxFGMD-RU2whj7ZI-4" value="行走" style="rounded=1;whiteSpace=wrap;html=1;fillColor=#f5f5f5;strokeColor=#666666;strokeWidth=3;fontColor=#333333;" vertex="1" parent="1">
          <mxGeometry x="-1330" y="-820" width="80" height="30" as="geometry" />
        </mxCell>
        <mxCell id="EuJhuxFGMD-RU2whj7ZI-5" value="坐下" style="rounded=1;whiteSpace=wrap;html=1;fillColor=#f5f5f5;strokeColor=#666666;strokeWidth=3;fontColor=#333333;" vertex="1" parent="1">
          <mxGeometry x="-1330" y="-920" width="80" height="30" as="geometry" />
        </mxCell>
        <mxCell id="EuJhuxFGMD-RU2whj7ZI-6" value="静坐" style="rounded=1;whiteSpace=wrap;html=1;fillColor=#f5f5f5;strokeColor=#666666;strokeWidth=3;fontColor=#333333;" vertex="1" parent="1">
          <mxGeometry x="-1430" y="-970" width="80" height="30" as="geometry" />
        </mxCell>
        <mxCell id="EuJhuxFGMD-RU2whj7ZI-7" value="起立" style="rounded=1;whiteSpace=wrap;html=1;fillColor=#f5f5f5;strokeColor=#666666;strokeWidth=3;fontColor=#333333;" vertex="1" parent="1">
          <mxGeometry x="-1520" y="-920" width="80" height="30" as="geometry" />
        </mxCell>
        <mxCell id="EuJhuxFGMD-RU2whj7ZI-8" value="" style="endArrow=classic;html=1;rounded=0;exitX=0.5;exitY=1;exitDx=0;exitDy=0;entryX=0;entryY=0.5;entryDx=0;entryDy=0;strokeWidth=2;" edge="1" parent="1" source="EuJhuxFGMD-RU2whj7ZI-2" target="EuJhuxFGMD-RU2whj7ZI-3">
          <mxGeometry width="50" height="50" relative="1" as="geometry">
            <mxPoint x="-1550" y="-1010" as="sourcePoint" />
            <mxPoint x="-1500" y="-1060" as="targetPoint" />
          </mxGeometry>
        </mxCell>
        <mxCell id="EuJhuxFGMD-RU2whj7ZI-9" value="" style="endArrow=classic;html=1;rounded=0;exitX=0.5;exitY=1;exitDx=0;exitDy=0;strokeWidth=2;" edge="1" parent="1" source="EuJhuxFGMD-RU2whj7ZI-7" target="EuJhuxFGMD-RU2whj7ZI-3">
          <mxGeometry width="50" height="50" relative="1" as="geometry">
            <mxPoint x="-1620" y="-850" as="sourcePoint" />
            <mxPoint x="-1510" y="-795" as="targetPoint" />
          </mxGeometry>
        </mxCell>
        <mxCell id="EuJhuxFGMD-RU2whj7ZI-10" value="" style="endArrow=classic;html=1;rounded=0;exitX=0.5;exitY=1;exitDx=0;exitDy=0;entryX=0.5;entryY=0;entryDx=0;entryDy=0;strokeWidth=2;curved=0;" edge="1" parent="1" source="EuJhuxFGMD-RU2whj7ZI-6" target="EuJhuxFGMD-RU2whj7ZI-7">
          <mxGeometry width="50" height="50" relative="1" as="geometry">
            <mxPoint x="-1610" y="-840" as="sourcePoint" />
            <mxPoint x="-1500" y="-785" as="targetPoint" />
          </mxGeometry>
        </mxCell>
        <mxCell id="EuJhuxFGMD-RU2whj7ZI-11" value="" style="endArrow=classic;html=1;rounded=0;exitX=0.5;exitY=1;exitDx=0;exitDy=0;entryX=0.5;entryY=0;entryDx=0;entryDy=0;strokeWidth=2;" edge="1" parent="1" source="EuJhuxFGMD-RU2whj7ZI-7" target="EuJhuxFGMD-RU2whj7ZI-4">
          <mxGeometry width="50" height="50" relative="1" as="geometry">
            <mxPoint x="-1380" y="-1010" as="sourcePoint" />
            <mxPoint x="-1470" y="-950" as="targetPoint" />
          </mxGeometry>
        </mxCell>
        <mxCell id="EuJhuxFGMD-RU2whj7ZI-12" value="" style="endArrow=classic;html=1;rounded=0;entryX=0.5;entryY=1;entryDx=0;entryDy=0;exitX=0.5;exitY=0;exitDx=0;exitDy=0;strokeWidth=2;" edge="1" parent="1" source="EuJhuxFGMD-RU2whj7ZI-5" target="EuJhuxFGMD-RU2whj7ZI-6">
          <mxGeometry width="50" height="50" relative="1" as="geometry">
            <mxPoint x="-1370" y="-1000" as="sourcePoint" />
            <mxPoint x="-1460" y="-940" as="targetPoint" />
          </mxGeometry>
        </mxCell>
        <mxCell id="EuJhuxFGMD-RU2whj7ZI-13" value="" style="endArrow=classic;html=1;rounded=0;entryX=0.5;entryY=1;entryDx=0;entryDy=0;strokeWidth=2;" edge="1" parent="1" target="EuJhuxFGMD-RU2whj7ZI-5">
          <mxGeometry width="50" height="50" relative="1" as="geometry">
            <mxPoint x="-1290" y="-820" as="sourcePoint" />
            <mxPoint x="-1380" y="-1010" as="targetPoint" />
          </mxGeometry>
        </mxCell>
        <mxCell id="EuJhuxFGMD-RU2whj7ZI-14" value="" style="endArrow=classic;html=1;rounded=0;entryX=1;entryY=0.25;entryDx=0;entryDy=0;exitX=0;exitY=0.25;exitDx=0;exitDy=0;strokeWidth=2;" edge="1" parent="1" source="EuJhuxFGMD-RU2whj7ZI-4" target="EuJhuxFGMD-RU2whj7ZI-3">
          <mxGeometry width="50" height="50" relative="1" as="geometry">
            <mxPoint x="-1270" y="-940" as="sourcePoint" />
            <mxPoint x="-1370" y="-1000" as="targetPoint" />
          </mxGeometry>
        </mxCell>
        <mxCell id="EuJhuxFGMD-RU2whj7ZI-15" value="" style="endArrow=classic;html=1;rounded=0;entryX=0;entryY=0.75;entryDx=0;entryDy=0;exitX=1;exitY=0.75;exitDx=0;exitDy=0;strokeWidth=2;" edge="1" parent="1" source="EuJhuxFGMD-RU2whj7ZI-3" target="EuJhuxFGMD-RU2whj7ZI-4">
          <mxGeometry width="50" height="50" relative="1" as="geometry">
            <mxPoint x="-1260" y="-930" as="sourcePoint" />
            <mxPoint x="-1360" y="-990" as="targetPoint" />
          </mxGeometry>
        </mxCell>
        <mxCell id="EuJhuxFGMD-RU2whj7ZI-16" value="" style="endArrow=classic;html=1;rounded=0;exitX=0.5;exitY=0;exitDx=0;exitDy=0;strokeWidth=2;entryX=0.5;entryY=1;entryDx=0;entryDy=0;" edge="1" parent="1" source="EuJhuxFGMD-RU2whj7ZI-3" target="EuJhuxFGMD-RU2whj7ZI-5">
          <mxGeometry width="50" height="50" relative="1" as="geometry">
            <mxPoint x="-1500" y="-799.9999999999998" as="sourcePoint" />
            <mxPoint x="-1310" y="-910" as="targetPoint" />
          </mxGeometry>
        </mxCell>
      </root>
    </mxGraphModel>
  </diagram>
</mxfile>
